# xmcd CD database file
#
# Track frame offsets:
#	150
#	20379
#	67048
#	98546
#	106618
#	132833
#	178900
#	180453
#	190038
#	200691
#	211871
#	225033
#	230996
#	252732
#	257153
#	258593
#
# Disc length: 3814 seconds
#
# Revision: 0
# Processed by: cddbd v1.5.1PL0 Copyright (c) Steve Scherf et al.
# Submitted via: CDex 1.51
#
DISCID=dd0ee410
DTITLE=The Cinematic Orchestra - Man With A Movie Camera
DYEAR=2003
DGENRE=Jazz
TTITLE0=The Projectionist
TTITLE1=Melody
TTITLE2=Dawn
TTITLE3=The Awakening of a Woman (Burnout)
TTITLE4=Reel Life (Evolution II)
TTITLE5=Postlude
TTITLE6=Evolution (Porto Edit)
TTITLE7=Work It! (Man with the Movie Camera)
TTITLE8=Voyage
TTITLE9=Odessa (Interlude I)
TTITLE10=Theme de Yoyo
TTITLE11=The Magician (Interlude II)
TTITLE12=Theme Reprise
TTITLE13=Yoyo Waltz
TTITLE14=Drunken Tune
TTITLE15=The Animated Tripod
EXTD=YEAR: 2003
EXTT0=
EXTT1=
EXTT2=
EXTT3=
EXTT4=
EXTT5=
EXTT6=
EXTT7=
EXTT8=
EXTT9=
EXTT10=
EXTT11=
EXTT12=
EXTT13=
EXTT14=
EXTT15=
PLAYORDER=
